<svg width="20" height="20" viewBox="0 0 20 20" fill="none" xmlns="http://www.w3.org/2000/svg">
<path fill-rule="evenodd" clip-rule="evenodd" d="M9.4884 1.00891C9.78933 0.774861 10.2107 0.774861 10.5116 1.00891L18.0116 6.84225C18.2146 7.00013 18.3334 7.24288 18.3334 7.50004V16.6667C18.3334 17.3297 18.07 17.9656 17.6011 18.4345C17.1323 18.9033 16.4964 19.1667 15.8334 19.1667H4.16669C3.50365 19.1667 2.86776 18.9033 2.39892 18.4345C1.93008 17.9656 1.66669 17.3297 1.66669 16.6667V7.50004C1.66669 7.24288 1.78541 7.00013 1.9884 6.84225L9.4884 1.00891ZM3.33335 7.90761V16.6667C3.33335 16.8877 3.42115 17.0997 3.57743 17.256C3.73371 17.4122 3.94567 17.5 4.16669 17.5H15.8334C16.0544 17.5 16.2663 17.4122 16.4226 17.256C16.5789 17.0997 16.6667 16.8877 16.6667 16.6667V7.90761L10 2.72242L3.33335 7.90761Z" fill="white"/>
<path fill-rule="evenodd" clip-rule="evenodd" d="M6.66669 9.99996C6.66669 9.53972 7.03978 9.16663 7.50002 9.16663H12.5C12.9603 9.16663 13.3334 9.53972 13.3334 9.99996V18.3333C13.3334 18.7935 12.9603 19.1666 12.5 19.1666C12.0398 19.1666 11.6667 18.7935 11.6667 18.3333V10.8333H8.33335V18.3333C8.33335 18.7935 7.96026 19.1666 7.50002 19.1666C7.03978 19.1666 6.66669 18.7935 6.66669 18.3333V9.99996Z" fill="white"/>
</svg>
