<svg width="20" height="20" viewBox="0 0 20 20" fill="none" xmlns="http://www.w3.org/2000/svg">
<g clip-path="url(#clip0_1_897)">
<path d="M16.575 19.1084C16.5 19.1084 16.425 19.1084 16.3416 19.1C13.65 18.8084 11.0333 17.875 8.77498 16.4084C6.67498 15.075 4.85832 13.2584 3.52498 11.1584C2.05832 8.89171 1.12498 6.26671 0.841649 3.57504C0.808315 3.21671 0.849982 2.87504 0.958315 2.54171C1.06665 2.20837 1.24998 1.90837 1.48332 1.65004C1.71665 1.39171 1.99998 1.19171 2.31665 1.05004C2.64165 0.908374 2.98332 0.833374 3.33332 0.833374H5.83332C6.41665 0.833374 7.01665 1.04171 7.48332 1.44171C7.94165 1.83337 8.24165 2.38337 8.32498 2.98337C8.42498 3.72504 8.60832 4.45837 8.86665 5.15004C9.03332 5.60004 9.07498 6.08337 8.96665 6.55004C8.86665 7.01671 8.63332 7.45004 8.29998 7.78337L7.69998 8.38337C8.68332 9.91671 9.98332 11.225 11.525 12.2084L12.125 11.6084C12.4667 11.2667 12.9 11.0334 13.3666 10.9417C13.8333 10.8417 14.3166 10.875 14.7666 11.0417C15.4583 11.3 16.1916 11.4834 16.925 11.5834C17.5416 11.6667 18.0917 11.975 18.4916 12.4417C18.8833 12.9084 19.1 13.5 19.0833 14.1084V16.6C19.0833 16.95 19.0166 17.2834 18.875 17.6084C18.7333 17.925 18.525 18.2167 18.275 18.45C18.0166 18.6834 17.7167 18.8667 17.3833 18.975C17.1166 19.0667 16.85 19.1084 16.575 19.1084ZM5.84998 2.50004H5.84165H3.33332C3.21665 2.50004 3.10832 2.52504 2.99998 2.57504C2.89165 2.61671 2.79165 2.68337 2.71665 2.76671C2.63332 2.85004 2.57498 2.95004 2.54165 3.06671C2.50832 3.17504 2.49165 3.29171 2.49998 3.40837C2.75832 5.83337 3.59998 8.20004 4.92498 10.2584C6.13332 12.1584 7.77498 13.8 9.67498 15.0084C11.725 16.3417 14.0916 17.175 16.5083 17.4417C16.6083 17.45 16.725 17.4334 16.8333 17.4C16.9417 17.3667 17.0416 17.3 17.1333 17.225C17.225 17.15 17.2916 17.05 17.3333 16.9417C17.3833 16.8334 17.4 16.7167 17.4 16.6V14.1C17.4 14.0917 17.4 14.0834 17.4 14.0834C17.4083 13.875 17.3333 13.6834 17.2 13.525C17.0666 13.3667 16.8833 13.2667 16.6833 13.2417C15.8333 13.1334 14.9833 12.9167 14.1666 12.6167C14.0166 12.5584 13.85 12.55 13.7 12.5834C13.5416 12.6167 13.4 12.6917 13.2833 12.8084L12.2333 13.8667C11.9667 14.1334 11.5583 14.1834 11.2333 14C9.01665 12.7417 7.18332 10.9 5.91665 8.69171C5.74165 8.34171 5.79165 7.93337 6.05832 7.66671L7.11665 6.60837C7.22498 6.50004 7.29998 6.35837 7.33332 6.20004C7.36665 6.04171 7.35832 5.88337 7.29998 5.73337C6.99165 4.91671 6.78332 4.06671 6.66665 3.20837C6.64165 3.01671 6.54165 2.83337 6.39165 2.70004C6.24165 2.57504 6.04998 2.50004 5.84998 2.50004Z" fill="white"/>
</g>
<defs>
<clipPath id="clip0_1_897">
<rect width="20" height="20" fill="white"/>
</clipPath>
</defs>
</svg>
