<svg width="41" height="41" viewBox="0 0 41 41" fill="none" xmlns="http://www.w3.org/2000/svg">
<path fill-rule="evenodd" clip-rule="evenodd" d="M19.3213 2.05423C19.934 1.57763 20.7921 1.57763 21.4049 2.05423L36.6772 13.9327C37.0906 14.2542 37.3323 14.7485 37.3323 15.2722V33.9384C37.3323 35.2886 36.796 36.5834 35.8413 37.5381C34.8866 38.4928 33.5917 39.0292 32.2416 39.0292H8.48458C7.13442 39.0292 5.83956 38.4928 4.88485 37.5381C3.93015 36.5834 3.3938 35.2886 3.3938 33.9384V15.2722C3.3938 14.7485 3.63556 14.2542 4.04891 13.9327L19.3213 2.05423ZM6.78765 16.1021V33.9384C6.78765 34.3884 6.96644 34.8201 7.28467 35.1383C7.60291 35.4565 8.03453 35.6353 8.48458 35.6353H32.2416C32.6916 35.6353 33.1232 35.4565 33.4415 35.1383C33.7597 34.8201 33.9385 34.3884 33.9385 33.9384V16.1021L20.3631 5.54348L6.78765 16.1021Z" fill="black"/>
<path fill-rule="evenodd" clip-rule="evenodd" d="M13.5754 20.3629C13.5754 19.4258 14.3352 18.666 15.2724 18.666H25.4539C26.3911 18.666 27.1509 19.4258 27.1509 20.3629V37.3322C27.1509 38.2694 26.3911 39.0291 25.4539 39.0291C24.5167 39.0291 23.757 38.2694 23.757 37.3322V22.0599H16.9693V37.3322C16.9693 38.2694 16.2096 39.0291 15.2724 39.0291C14.3352 39.0291 13.5754 38.2694 13.5754 37.3322V20.3629Z" fill="black"/>
</svg>
