<svg width="41" height="41" viewBox="0 0 41 41" fill="none" xmlns="http://www.w3.org/2000/svg">
<path fill-rule="evenodd" clip-rule="evenodd" d="M6.7878 8.60772C5.85837 8.60772 5.09088 9.37522 5.09088 10.3046V30.6678C5.09088 31.5972 5.85837 32.3647 6.7878 32.3647H33.9386C34.8681 32.3647 35.6356 31.5972 35.6356 30.6678V10.3046C35.6356 9.37522 34.8681 8.60772 33.9386 8.60772H6.7878ZM1.69702 10.3046C1.69702 7.50084 3.984 5.21387 6.7878 5.21387H33.9386C36.7424 5.21387 39.0294 7.50084 39.0294 10.3046V30.6678C39.0294 33.4716 36.7424 35.7586 33.9386 35.7586H6.7878C3.984 35.7586 1.69702 33.4716 1.69702 30.6678V10.3046Z" fill="black"/>
<path fill-rule="evenodd" clip-rule="evenodd" d="M2.00367 9.33137C2.54111 8.5636 3.5992 8.37688 4.36697 8.91432L20.3631 20.1116L36.3593 8.91432C37.127 8.37688 38.1851 8.5636 38.7226 9.33137C39.26 10.0991 39.0733 11.1572 38.3055 11.6947L21.3362 23.5732C20.752 23.9822 19.9743 23.9822 19.39 23.5732L2.42073 11.6947C1.65295 11.1572 1.46623 10.0991 2.00367 9.33137Z" fill="black"/>
</svg>
