<svg width="41" height="42" viewBox="0 0 41 42" fill="none" xmlns="http://www.w3.org/2000/svg">
<path d="M33.752 39.4358C33.5992 39.4358 33.4465 39.4358 33.2768 39.4188C27.7957 38.8249 22.4674 36.9243 17.8687 33.9377C13.5925 31.2227 9.89317 27.5234 7.17808 23.2471C4.19149 18.6315 2.29093 13.2861 1.71398 7.80506C1.6461 7.07538 1.73095 6.37964 1.95155 5.70087C2.17215 5.0221 2.54547 4.4112 3.02061 3.88516C3.49575 3.35911 4.07271 2.95185 4.71754 2.66337C5.37934 2.37489 6.07508 2.22217 6.78779 2.22217H11.8786C13.0664 2.22217 14.2882 2.6464 15.2385 3.46092C16.1718 4.25848 16.7827 5.37845 16.9524 6.60024C17.156 8.1105 17.5293 9.6038 18.0554 11.0122C18.3948 11.9286 18.4796 12.9128 18.259 13.8631C18.0554 14.8134 17.5802 15.6958 16.9015 16.3745L15.6797 17.5963C17.6821 20.7187 20.3293 23.3828 23.4686 25.3852L24.6904 24.1634C25.3861 23.4677 26.2685 22.9926 27.2188 22.8059C28.1691 22.6023 29.1533 22.6701 30.0696 23.0095C31.4781 23.5356 32.9714 23.9089 34.4647 24.1125C35.7204 24.2822 36.8404 24.9101 37.6549 25.8604C38.4524 26.8106 38.8937 28.0155 38.8597 29.2542V34.328C38.8597 35.0407 38.724 35.7195 38.4355 36.3813C38.147 37.0261 37.7228 37.6201 37.2137 38.0952C36.6876 38.5703 36.0768 38.9437 35.398 39.1643C34.855 39.3509 34.3119 39.4358 33.752 39.4358ZM11.9125 5.61602H11.8955H6.78779C6.55022 5.61602 6.32962 5.66693 6.10902 5.76875C5.88842 5.85359 5.68479 5.98935 5.53206 6.15904C5.36237 6.32873 5.24359 6.53236 5.17571 6.76993C5.10783 6.99053 5.07389 7.2281 5.09086 7.46567C5.61691 12.4037 7.33081 17.223 10.0289 21.4144C12.4895 25.2834 15.8324 28.6264 19.7014 31.0869C23.8758 33.802 28.6951 35.4989 33.6162 36.0419C33.8198 36.0589 34.0574 36.025 34.278 35.9571C34.4986 35.8892 34.7022 35.7534 34.8889 35.6007C35.0756 35.448 35.2113 35.2444 35.2962 35.0238C35.398 34.8032 35.4319 34.5656 35.4319 34.328V29.2372C35.4319 29.2203 35.4319 29.2033 35.4319 29.2033C35.4489 28.7791 35.2962 28.3888 35.0247 28.0664C34.7531 27.7439 34.3798 27.5403 33.9726 27.4894C32.2417 27.2688 30.5108 26.8276 28.8478 26.2167C28.5424 26.0979 28.203 26.081 27.8976 26.1488C27.5751 26.2167 27.2867 26.3694 27.0491 26.607L24.911 28.7621C24.368 29.3051 23.5365 29.4069 22.8747 29.0336C18.3608 26.4713 14.6276 22.721 12.0483 18.2242C11.6919 17.5115 11.7937 16.68 12.3367 16.137L14.4918 13.9819C14.7124 13.7613 14.8652 13.4728 14.933 13.1504C15.0009 12.828 14.9839 12.5055 14.8652 12.2001C14.2373 10.5371 13.8131 8.80624 13.5755 7.05841C13.5246 6.66812 13.321 6.29479 13.0155 6.02328C12.7101 5.76875 12.3198 5.61602 11.9125 5.61602Z" fill="black"/>
</svg>
